<svg id="Layer_1" data-name="Layer 1" xmlns="http://www.w3.org/2000/svg" viewBox="0 0 108.98 88.84"><defs><style>.cls-1{fill:#1a3665;}.cls-2{fill:#c1d744;}</style></defs><title>logo</title><path class="cls-1" d="M10.3,9.4l2.4,1.7a1,1,0,0,1,.4.9l-.5,28.7v.1c.1,1,1.5,15.2,12.9,18.9h.1c.6.1,4.1.6,3-3.4a3.77,3.77,0,0,0-.9-1.5l-4.8-4.3h0c-.4-.3-7.5-6.1-3.8-10.8s15.4,9.7,16.2,10.8l.1.1,4.7,4.3A19.9,19.9,0,0,1,43,58.5L49.9,70a5.67,5.67,0,0,1,.2,5.5L43.5,88.3a1.06,1.06,0,0,1-1.6.3L14.8,63.3a12.66,12.66,0,0,1-2.1-2.5,40.56,40.56,0,0,1-4.5-9.9c-1.5-5.6-2.1-33.8.5-41.1A1.08,1.08,0,0,1,10.3,9.4Z" transform="translate(-6.91)"/><path class="cls-1" d="M112.5,9.4l-2.1,1.5c-.5.4-.7.7-.7,1l.5,28.7v.1c-.1,1-1.5,15.2-12.9,18.9h-.1c-.6.1-4.1.6-3-3.4a3.77,3.77,0,0,1,.9-1.5l4.8-4.3h0c.4-.3,7.5-6.1,3.8-10.8s-14.8,9-16.1,10.7l-.3.3-4.6,4.2a19.9,19.9,0,0,0-2.9,3.6l-7,11.5a5.67,5.67,0,0,0-.2,5.5l6.6,12.8a1.06,1.06,0,0,0,1.6.3L108,63.4a12.66,12.66,0,0,0,2.1-2.5,40.56,40.56,0,0,0,4.5-9.9c1.5-5.6,2.1-33.8-.5-41.1A1.05,1.05,0,0,0,112.5,9.4Z" transform="translate(-6.91)"/><circle class="cls-1" cx="54.49" cy="8.1" r="8.1"/><circle class="cls-1" cx="54.49" cy="24.4" r="6.5"/><circle class="cls-1" cx="54.49" cy="37.4" r="4.3"/><circle class="cls-1" cx="54.49" cy="46.6" r="3.3"/><circle class="cls-1" cx="54.49" cy="54.2" r="2.2"/><circle class="cls-1" cx="54.49" cy="60.2" r="1.6"/><circle class="cls-1" cx="54.49" cy="65" r="1.1"/><circle class="cls-2" cx="88.79" cy="19.8" r="8.1"/><circle class="cls-2" cx="79.79" cy="33.4" r="6.5"/><circle class="cls-2" cx="72.69" cy="44.3" r="4.3"/><circle class="cls-2" cx="67.59" cy="52" r="3.3"/><circle class="cls-2" cx="63.39" cy="58.3" r="2.2"/><circle class="cls-2" cx="60.19" cy="63.3" r="1.6"/><circle class="cls-2" cx="57.49" cy="67.3" r="1.1"/><circle class="cls-2" cx="20.59" cy="19.8" r="8.1"/><circle class="cls-2" cx="29.59" cy="33.4" r="6.5"/><circle class="cls-2" cx="36.69" cy="44.3" r="4.3"/><circle class="cls-2" cx="41.79" cy="52" r="3.3"/><circle class="cls-2" cx="45.99" cy="58.3" r="2.2"/><circle class="cls-2" cx="49.19" cy="63.3" r="1.6"/><circle class="cls-2" cx="51.89" cy="67.3" r="1.1"/></svg>