<?xml version="1.0" encoding="utf-8"?>
<!-- Generator: Adobe Illustrator 15.0.0, SVG Export Plug-In . SVG Version: 6.00 Build 0)  -->
<!DOCTYPE svg PUBLIC "-//W3C//DTD SVG 1.1//EN" "http://www.w3.org/Graphics/SVG/1.1/DTD/svg11.dtd">
<svg version="1.1" id="Layer_1" xmlns="http://www.w3.org/2000/svg" xmlns:xlink="http://www.w3.org/1999/xlink" x="0px" y="0px"
	 width="1050px" height="500px" viewBox="0 0 1050 500" enable-background="new 0 0 1050 500" xml:space="preserve">
<title>logo</title>
<path fill="#1A3665" d="M237.404,52.904l13.507,9.567c1.587,1.176,2.442,3.099,2.251,5.065l-2.814,161.526v0.563
	c0.563,5.628,8.442,85.547,72.602,106.371h0.563c3.377,0.563,23.075,3.377,16.885-19.137c-1.004-3.172-2.738-6.063-5.065-8.44
	l-27.015-24.201l0,0c-2.251-1.688-42.211-34.332-21.387-60.783c20.824-26.452,86.673,54.592,91.175,60.783l0.563,0.563
	l26.452,24.201c6.209,6.097,11.687,12.896,16.322,20.261l38.834,64.724c5.692,9.432,6.117,21.135,1.125,30.954l-37.146,72.04
	c-1.607,2.876-5.243,3.903-8.119,2.295c-0.313-0.176-0.608-0.378-0.886-0.605L262.731,356.259
	c-4.531-4.159-8.503-8.89-11.819-14.069c-10.905-17.353-19.423-36.094-25.326-55.719c-8.442-31.518-11.819-190.229,2.814-231.314
	c1.481-3.012,5.125-4.253,8.137-2.772C236.839,52.532,237.13,52.707,237.404,52.904z"/>
<path fill="#1A3665" d="M812.596,52.904l-11.818,8.442c-2.813,2.251-3.939,3.94-3.939,5.628l2.814,161.526v0.563
	c-0.563,5.628-8.442,85.546-72.604,106.371h-0.563c-3.376,0.563-23.074,3.377-16.885-19.136c1.004-3.172,2.738-6.063,5.065-8.442
	l27.015-24.199l0,0c2.251-1.688,42.211-34.332,21.388-60.784c-20.824-26.452-83.296,50.653-90.612,60.221l-1.688,1.688
	l-25.89,23.639c-6.21,6.098-11.687,12.896-16.322,20.262l-39.396,64.724c-5.693,9.432-6.119,21.134-1.125,30.954l37.146,72.04
	c1.607,2.875,5.242,3.901,8.118,2.294c0.313-0.175,0.609-0.378,0.888-0.605L787.27,356.82c4.53-4.159,8.504-8.889,11.818-14.069
	c10.905-17.353,19.424-36.093,25.327-55.718c8.441-31.518,11.818-190.23-2.814-231.315c-1.1-3.073-4.48-4.673-7.555-3.574
	C813.529,52.329,813.042,52.585,812.596,52.904z"/>
<circle fill="#1A3665" cx="525" cy="45.588" r="45.588"/>
<circle fill="#1A3665" cx="525" cy="137.326" r="36.583"/>
<circle fill="#1A3665" cx="525" cy="210.491" r="24.201"/>
<circle fill="#1A3665" cx="525" cy="262.269" r="18.573"/>
<circle fill="#1A3665" cx="525" cy="305.043" r="12.382"/>
<circle fill="#1A3665" cx="525" cy="338.812" r="9.005"/>
<circle fill="#1A3665" cx="525" cy="365.827" r="6.191"/>
<circle fill="#C1D744" cx="718.044" cy="111.436" r="45.588"/>
<circle fill="#C1D744" cx="667.391" cy="187.979" r="36.583"/>
<circle fill="#C1D744" cx="627.432" cy="249.325" r="24.201"/>
<circle fill="#C1D744" cx="598.729" cy="292.661" r="18.573"/>
<circle fill="#C1D744" cx="575.09" cy="328.118" r="12.382"/>
<circle fill="#C1D744" cx="557.08" cy="356.259" r="9.005"/>
<circle fill="#C1D744" cx="541.884" cy="378.771" r="6.191"/>
<circle fill="#C1D744" cx="334.208" cy="111.436" r="45.588"/>
<circle fill="#C1D744" cx="384.86" cy="187.979" r="36.583"/>
<circle fill="#C1D744" cx="424.82" cy="249.325" r="24.201"/>
<circle fill="#C1D744" cx="453.523" cy="292.661" r="18.573"/>
<circle fill="#C1D744" cx="477.161" cy="328.118" r="12.382"/>
<circle fill="#C1D744" cx="495.171" cy="356.259" r="9.005"/>
<circle fill="#C1D744" cx="510.367" cy="378.771" r="6.191"/>
</svg>
